<svg width="50" height="50" viewBox="0 0 50 50" xmlns="http://www.w3.org/2000/svg">
    <g transform="translate(1 1)" fill="none" fill-rule="evenodd">
        <path d="M24.948 14.52c.598 0 1.083.486 1.083 1.084v1.219a7.557 7.557 0 0 1 3.16 1.835l1.064-.615c.519-.3 1.181-.122 1.48.396l.948 1.642c.3.518.122 1.181-.396 1.48l-1.056.61c.139.588.217 1.2.217 1.829 0 .63-.078 1.241-.225 1.826l1.064.613c.518.299.695.962.396 1.48l-.948 1.642c-.299.518-.961.695-1.48.396l-1.065-.615a7.44 7.44 0 0 1-3.16 1.826l.001 1.228c0 .598-.485 1.083-1.083 1.083h-1.896a1.083 1.083 0 0 1-1.083-1.083v-1.219a7.557 7.557 0 0 1-3.159-1.835l-1.065.615c-.519.3-1.181.122-1.48-.396l-.948-1.642c-.3-.518-.122-1.181.396-1.48l1.056-.61A7.963 7.963 0 0 1 16.552 24c0-.63.078-1.241.225-1.826l-1.064-.613a1.083 1.083 0 0 1-.396-1.48l.948-1.642c.299-.518.961-.695 1.48-.396l1.065.615a7.44 7.44 0 0 1 3.16-1.826l-.001-1.228c0-.598.485-1.083 1.083-1.083h1.896zM24 18.584a5.417 5.417 0 1 0 0 10.834 5.417 5.417 0 0 0 0-10.834z" fill="#3E82F4" fill-rule="nonzero"/>
        <circle stroke="#E0E9EB" cx="24" cy="24" r="24"/>
    </g>
</svg>
